<?xml version="1.0" encoding="UTF-8"?>
<svg width="32px" height="32px" viewBox="0 0 32 32" version="1.1" xmlns="http://www.w3.org/2000/svg" xmlns:xlink="http://www.w3.org/1999/xlink">
    <!-- Generator: Sketch 43.2 (39069) - http://www.bohemiancoding.com/sketch -->
    <title>nope</title>
    <desc>Created with Sketch.</desc>
    <defs></defs>
    <g id="Page-1" stroke="none" stroke-width="1" fill="none" fill-rule="evenodd" fill-opacity="0.154296875">
        <g id="Off" transform="translate(-61.000000, -97.000000)" fill-rule="nonzero" fill="#FFFFFF">
            <g id="nope" transform="translate(61.000000, 97.000000)">
                <path d="M16,20.042449 L4.89469388,31.1477551 C3.76489796,32.277551 1.95265306,32.2808163 0.835918367,31.1640816 C-0.287346939,30.0408163 -0.274285714,28.2318367 0.852244898,27.1053061 L11.957551,16 L0.852244898,4.89469388 C-0.27755102,3.76489796 -0.280816327,1.95265306 0.835918367,0.835918367 C1.95918367,-0.287346939 3.76816327,-0.274285714 4.89469388,0.852244898 L16,11.957551 L27.1053061,0.852244898 C28.235102,-0.27755102 30.0473469,-0.280816327 31.1640816,0.835918367 C32.2873469,1.95918367 32.2742857,3.76816327 31.1477551,4.89469388 L20.042449,16 L31.1477551,27.1053061 C32.277551,28.235102 32.2808163,30.0473469 31.1640816,31.1640816 C30.0408163,32.2873469 28.2318367,32.2742857 27.1053061,31.1477551 L16,20.042449 Z" id="Shape"></path>
            </g>
        </g>
    </g>
</svg>