<?xml version="1.0" encoding="UTF-8"?>
<svg width="32px" height="22px" viewBox="0 0 32 22" version="1.1" xmlns="http://www.w3.org/2000/svg" xmlns:xlink="http://www.w3.org/1999/xlink">
    <!-- Generator: Sketch 43.2 (39069) - http://www.bohemiancoding.com/sketch -->
    <title>yep</title>
    <desc>Created with Sketch.</desc>
    <defs></defs>
    <g id="Page-1" stroke="none" stroke-width="1" fill="none" fill-rule="evenodd">
        <g id="On" transform="translate(-61.000000, -102.000000)" fill-rule="nonzero" fill="#FFFFFF">
            <g id="yep" transform="translate(61.000000, 102.000000)">
                <path d="M28.8406644,0.47489024 C28.8406644,0.47489024 27.5575821,0.412262408 26.5872909,1.36420545 L13.0862003,14.6413057 L5.40047304,7.09465202 C5.40047304,7.09465202 4.48124985,6.14897177 3.23008495,6.23665073 C3.23008495,6.23665073 1.96615306,6.26796465 1.23205121,7.09465202 C1.23205121,7.09465202 0.466031883,7.68961642 0.376662962,9.01106367 C0.376662962,9.01106367 0.319211512,10.2260436 1.26396868,11.1842494 L10.9732636,20.6911542 C10.9732636,20.6911542 11.7328995,21.5303672 13.0478993,21.5428927 C13.0478993,21.5428927 14.1330934,21.6744112 15.1736029,20.6911542 L30.8131642,5.34733553 C30.8131642,5.34733553 31.7515379,4.4267064 31.585567,3.24930317 C31.585567,3.24930317 31.5536495,1.9403815 30.8259312,1.3454171 C30.8323147,1.3454171 29.945009,0.47489024 28.8406644,0.47489024 Z" id="Shape"></path>
            </g>
        </g>
    </g>
</svg>